<?xml version="1.0" encoding="UTF-8"?>
<svg version="1.1" xmlns="http://www.w3.org/2000/svg" width="512" height="512">
<path d="M0 0 C2.47340498 -0.00271348 4.94680914 -0.00627641 7.42021179 -0.01062012 C13.41528838 -0.01876285 19.41029537 -0.01761288 25.40536916 -0.01179484 C30.28195377 -0.00726002 35.15852436 -0.00667327 40.03511047 -0.00884247 C41.08008791 -0.00930217 41.08008791 -0.00930217 42.14617601 -0.00977115 C43.56184256 -0.01041067 44.97750912 -0.0110591 46.39317566 -0.01171634 C59.6374334 -0.01740608 72.88166336 -0.01088309 86.12591654 -0.0001156 C97.46595696 0.00881867 108.80595641 0.00726625 120.14599609 -0.00195312 C133.34603279 -0.01267979 146.5460452 -0.01685688 159.74608564 -0.0107286 C161.15625985 -0.01009157 162.56643406 -0.00946282 163.97660828 -0.00884247 C165.01709198 -0.00837964 165.01709198 -0.00837964 166.07859555 -0.00790747 C170.94378587 -0.0061877 175.80896065 -0.00908005 180.67414856 -0.01380157 C187.23402454 -0.02002841 193.79383557 -0.0155333 200.35370827 -0.00401306 C202.75419296 -0.00137958 205.15468419 -0.00210901 207.55516624 -0.00653839 C232.95337689 -0.04906512 256.06898176 2.45373037 275.27148438 20.93457031 C290.97699369 37.27159486 297.66671817 56.28426353 297.64630127 78.74925232 C297.65075795 80.29734694 297.65075795 80.29734694 297.65530467 81.8767162 C297.66395072 85.32236013 297.66549646 88.76796914 297.66699219 92.21362305 C297.67162334 94.68965224 297.6766484 97.16568072 297.68203735 99.64170837 C297.69513663 106.36117138 297.70163912 113.08062082 297.70604801 119.80009341 C297.70881827 124.00342417 297.71305709 128.20675265 297.71755219 132.41008186 C297.7297406 144.06921843 297.74003993 155.72835319 297.74342728 167.38749599 C297.74364684 168.13271173 297.74386641 168.87792746 297.74409263 169.64572549 C297.74431091 170.39263467 297.74452918 171.13954385 297.74475408 171.90908664 C297.74519753 173.42238263 297.74564409 174.93567862 297.74609375 176.44897461 C297.74631518 177.19960747 297.74653661 177.95024033 297.74676475 178.72361965 C297.75070726 190.86872398 297.76814645 203.01376812 297.79145327 215.15884923 C297.81524019 227.6559941 297.8276325 240.15310887 297.82879519 252.65027672 C297.82970798 259.65559647 297.83535929 266.6608378 297.85361481 273.66613579 C297.87074618 280.26290237 297.87221391 286.85954735 297.8634758 293.45633888 C297.86270946 295.86643243 297.86699444 298.27653419 297.87693405 300.68660736 C297.9828817 327.99580692 294.49167061 350.45765889 275.06445312 370.81738281 C262.09895086 383.15854307 245.07583388 390.47796924 227.14257812 390.35644531 C226.35059525 390.35503036 225.55861237 390.35361542 224.74263 390.35215759 C222.22616719 390.34658364 219.70979506 390.33403599 217.19335938 390.32128906 C215.48177212 390.31627069 213.77018347 390.31170838 212.05859375 390.30761719 C207.87431429 390.29662274 203.69010218 390.27937613 199.50585938 390.25878906 C199.52680664 391.27078369 199.54775391 392.28277832 199.56933594 393.32543945 C199.64288195 397.15536802 199.68806574 400.98523731 199.72558594 404.81567383 C199.74544505 406.45933599 199.77254194 408.10293002 199.80761719 409.74633789 C200.28966457 432.94841283 193.73179063 451.39229054 177.42382812 468.43457031 C157.57902789 487.39574308 132.89393741 488.56533615 107.01171875 488.51757812 C104.53831377 488.5202916 102.06490961 488.52385453 99.59150696 488.52819824 C93.59643037 488.53634097 87.60142338 488.53519101 81.60634959 488.52937296 C76.72976498 488.52483814 71.85319439 488.5242514 66.97660828 488.52642059 C65.93163084 488.52688029 65.93163084 488.52688029 64.86554274 488.52734928 C63.44987619 488.52798879 62.03420963 488.52863722 60.61854309 488.52929446 C47.37428535 488.5349842 34.13005539 488.52846121 20.88580221 488.51769373 C9.54576179 488.50875945 -1.79423766 488.51031188 -13.13427734 488.51953125 C-26.33431404 488.53025791 -39.53432645 488.53443501 -52.73436689 488.52830672 C-54.1445411 488.52766969 -55.55471531 488.52704095 -56.96488953 488.52642059 C-57.65854533 488.52611204 -58.35220113 488.52580349 -59.0668768 488.52548559 C-63.93206712 488.52376583 -68.7972419 488.52665817 -73.66242981 488.5313797 C-80.22230579 488.53760653 -86.78211682 488.53311142 -93.34198952 488.52159119 C-95.74247421 488.51895771 -98.14296544 488.51968713 -100.54344749 488.52411652 C-127.35415495 488.56900833 -149.63894108 485.34026329 -169.83789062 466.01660156 C-184.81077692 450.37711417 -190.65393895 431.06646735 -190.63458252 409.76832581 C-190.63755364 408.73626273 -190.64052476 407.70419965 -190.64358592 406.64086193 C-190.65223197 403.195218 -190.65377771 399.74960898 -190.65527344 396.30395508 C-190.65990459 393.82792589 -190.66492965 391.35189741 -190.6703186 388.87586975 C-190.68341788 382.15640675 -190.68992037 375.43695731 -190.69432926 368.71748471 C-190.69709952 364.51415396 -190.70133834 360.31082548 -190.70583344 356.10749626 C-190.71802185 344.44835969 -190.72832118 332.78922493 -190.73170853 321.13008213 C-190.73192809 320.3848664 -190.73214766 319.63965066 -190.73237388 318.87185263 C-190.73259216 318.12494345 -190.73281043 317.37803427 -190.73303533 316.60849148 C-190.73347878 315.09519549 -190.73392534 313.5818995 -190.734375 312.06860352 C-190.73459643 311.31797065 -190.73481786 310.56733779 -190.735046 309.79395848 C-190.73898851 297.64885414 -190.7564277 285.50381001 -190.77973452 273.35872889 C-190.80352144 260.86158402 -190.81591375 248.36446926 -190.81707644 235.8673014 C-190.81798923 228.86198166 -190.82364054 221.85674032 -190.84189606 214.85144234 C-190.85902743 208.25467575 -190.86049516 201.65803078 -190.85175705 195.06123924 C-190.85099071 192.6511457 -190.85527569 190.24104394 -190.8652153 187.83097076 C-190.97116295 160.5217712 -187.47995186 138.05991924 -168.05273438 117.70019531 C-155.08723211 105.35903505 -138.06411513 98.03960889 -120.13085938 98.16113281 C-118.94288506 98.16325523 -118.94288506 98.16325523 -117.73091125 98.16542053 C-115.21444844 98.17099449 -112.69807631 98.18354214 -110.18164062 98.19628906 C-108.47005337 98.20130743 -106.75846472 98.20586975 -105.046875 98.20996094 C-100.86259554 98.22095538 -96.67838343 98.23820199 -92.49414062 98.25878906 C-92.52556152 96.74079712 -92.52556152 96.74079712 -92.55761719 95.19213867 C-92.6311632 91.36221011 -92.67634699 87.53234082 -92.71386719 83.7019043 C-92.7337263 82.05824213 -92.76082319 80.4146481 -92.79589844 78.77124023 C-93.27794582 55.56916529 -86.72007188 37.12528758 -70.41210938 20.08300781 C-50.56730914 1.12183505 -25.88221866 -0.04775803 0 0 Z M-39.32470703 60.34594727 C-44.11151894 68.1757325 -43.86665615 76.39784773 -43.68164062 85.32128906 C-43.66810547 86.56845703 -43.65457031 87.815625 -43.640625 89.10058594 C-43.60553083 92.15377873 -43.5563633 95.20604897 -43.49414062 98.25878906 C-42.10791205 98.2609889 -42.10791205 98.2609889 -40.69367886 98.26323318 C-18.15628357 98.2999076 4.38096403 98.35946092 26.91823673 98.4426918 C37.81731968 98.48241856 48.71633108 98.51484331 59.61547852 98.52978516 C69.1205793 98.54283472 78.62552225 98.56988342 88.13053411 98.61340213 C93.15848597 98.63594277 98.1862437 98.6517042 103.21425056 98.65067291 C107.95774045 98.64992191 112.70080241 98.66804787 117.44418144 98.69995689 C119.17458516 98.70839677 120.90503721 98.71024659 122.63545227 98.70459175 C143.7421198 98.64486488 162.91666086 104.33413897 178.50585938 119.25878906 C194.29402062 135.74994821 199.1240624 155.54306395 199.05175781 177.66870117 C199.06051423 179.46400336 199.07100712 181.25929777 199.08308411 183.05458069 C199.1107117 187.88004811 199.11435398 192.70525797 199.11336422 197.53079295 C199.11651349 202.59167661 199.14217325 207.65244764 199.16534424 212.71327209 C199.20575443 222.27508231 199.22620957 231.83682459 199.23931813 241.39870697 C199.25523917 252.29370864 199.29367607 263.18859553 199.33391142 274.08353031 C199.41610515 296.4752446 199.47032522 318.8669555 199.50585938 341.25878906 C203.81822859 341.34668621 208.13036388 341.39948136 212.44335938 341.44628906 C213.65572266 341.47142578 214.86808594 341.4965625 216.1171875 341.52246094 C224.78231499 341.59290913 233.04983395 341.13415207 239.81835938 335.13378906 C240.43324219 334.61558594 241.048125 334.09738281 241.68164062 333.56347656 C247.00475911 326.83833757 248.09221335 319.99940524 248.01379395 311.63220215 C248.02003391 310.59772367 248.02627387 309.56324519 248.03270292 308.49741888 C248.04858864 305.04980148 248.03604549 301.60289541 248.0234375 298.15527344 C248.02886055 295.67596526 248.03598424 293.19666031 248.04467773 290.71736145 C248.06100236 284.69359626 248.05864262 278.67010764 248.04702717 272.64635336 C248.03797585 267.74864991 248.03677617 262.85100228 248.04112244 257.95329285 C248.04204183 256.90577013 248.04204183 256.90577013 248.04297981 255.83708534 C248.04425877 254.41818971 248.04555562 252.9992941 248.04687017 251.5803985 C248.05826318 238.29046579 248.04518241 225.00064364 248.02366871 211.71072906 C248.00579885 200.3193044 248.00890332 188.92804281 248.02734375 177.53662109 C248.04877314 164.2926835 248.05716466 151.04884267 248.0448947 137.80489016 C248.04362056 136.39135521 248.04236308 134.97782025 248.04112244 133.56428528 C248.04050533 132.86888668 248.03988823 132.17348808 248.03925243 131.4570168 C248.03580572 126.56793437 248.04161318 121.67891358 248.05104065 116.7898407 C248.06346196 110.20369718 248.05455745 103.61781327 248.03146362 97.03168297 C248.02618111 94.61662494 248.02768243 92.20154096 248.03651428 89.7864933 C248.04747084 86.48577317 248.03370348 83.18603389 248.01379395 79.88537598 C248.02271683 78.93332071 248.03163972 77.98126544 248.040833 77.00036001 C247.95393098 69.55508611 246.19892235 63.46598224 241.35742188 57.70019531 C240.62265625 57.08015625 239.88789063 56.46011719 239.13085938 55.82128906 C238.03644531 54.86416016 238.03644531 54.86416016 236.91992188 53.88769531 C231.00783969 49.89847481 225.12053683 49.96734398 218.24676514 49.9846344 C216.69995068 49.97677938 216.69995068 49.97677938 215.12188745 49.96876568 C211.66748204 49.9537675 208.21322479 49.95306055 204.75878906 49.95239258 C202.28154755 49.94477098 199.8043084 49.93634348 197.32707214 49.9271698 C190.59762095 49.90521789 183.8682293 49.89640298 177.13875103 49.89134336 C172.93380707 49.88808244 168.72887221 49.88155759 164.52393341 49.87434196 C152.87258576 49.85478085 141.22124657 49.83837368 129.56988144 49.83546543 C128.82480214 49.83527786 128.07972284 49.83509029 127.31206538 49.83489704 C125.80173222 49.8345308 124.29139907 49.8341671 122.78106591 49.83380593 C121.65653057 49.83353171 121.65653057 49.83353171 120.50927734 49.83325195 C119.38336321 49.83298113 119.38336321 49.83298113 118.23470333 49.83270483 C106.07499137 49.82916396 93.91545659 49.8021449 81.75580606 49.76475406 C69.25988122 49.72663788 56.76404422 49.70730772 44.26805997 49.70700592 C37.25673028 49.70642211 30.24561199 49.69797946 23.23433685 49.66900826 C16.63837663 49.64187767 10.04276145 49.64061765 3.4467411 49.65666389 C1.02886607 49.65847912 -1.38903296 49.65178122 -3.80685616 49.63584518 C-7.11410168 49.61537971 -10.41988415 49.62594089 -13.72711182 49.64405823 C-14.6783006 49.63085826 -15.62948939 49.61765829 -16.60950208 49.60405833 C-25.64566702 49.71670606 -33.75703004 53.00336589 -39.32470703 60.34594727 Z M70.25585938 205.88378906 C68.64530498 207.99358711 67.06728756 210.11349227 65.50585938 212.25878906 C64.46885182 213.66038807 63.43103793 215.06139071 62.39257812 216.46191406 C60.02337304 219.66574101 57.66696354 222.87862846 55.31445312 226.09472656 C51.44408712 231.36693371 47.48271083 236.56666861 43.50585938 241.75878906 C38.43909522 248.37806562 33.43150258 255.03382414 28.50585938 261.75878906 C22.92356644 269.38027576 17.22231149 276.90384318 11.47998047 284.40527344 C6.37511845 291.08629101 1.36770276 297.83363889 -3.59619141 304.61987305 C-7.88273432 310.46884153 -12.29551608 316.20425487 -16.79882812 321.88769531 C-18.68801344 324.0441398 -18.68801344 324.0441398 -18.49414062 326.25878906 C-22.44477961 324.9419094 -23.95680876 322.40508023 -26.36914062 319.19628906 C-27.34688498 317.92175918 -28.32611452 316.64836761 -29.30664062 315.37597656 C-29.82226562 314.7053418 -30.33789062 314.03470703 -30.86914062 313.34375 C-34.1634024 309.11703792 -37.58241319 304.9899638 -40.98974609 300.85424805 C-43.4976639 297.79141513 -45.90533902 294.71545655 -48.16210938 291.46191406 C-52.09144113 286.06484197 -56.91019629 282.70725682 -63.49414062 281.25878906 C-71.30933013 280.44227673 -77.12997896 282.08197858 -83.68164062 286.32128906 C-88.32046096 290.59154559 -91.02555022 296.0927478 -91.94335938 302.29394531 C-92.32604299 312.73197081 -87.98344825 319.15203504 -81.43164062 326.88378906 C-80.26266782 328.29181024 -79.09471572 329.7006794 -77.92773438 331.11035156 C-77.34749512 331.80805664 -76.76725586 332.50576172 -76.16943359 333.22460938 C-73.72363367 336.19435653 -71.35606589 339.22221516 -68.99414062 342.25878906 C-64.51947242 347.99193211 -59.94944018 353.64222809 -55.34765625 359.27368164 C-51.21518538 364.34114256 -47.16271077 369.46640996 -43.18359375 374.65527344 C-38.35230168 380.88846929 -33.15844824 386.70401986 -25.49414062 389.25878906 C-18.08767741 389.92811389 -11.60508973 389.84528635 -5.49414062 385.25878906 C-1.16352053 381.27082746 2.36602667 376.78411998 5.94335938 372.13378906 C6.85915771 370.95006714 6.85915771 370.95006714 7.79345703 369.74243164 C12.6606716 363.42279231 17.40339512 357.0161197 22.11303711 350.57861328 C26.50627559 344.58323525 30.98744588 338.66026865 35.50585938 332.75878906 C40.57248747 326.13940632 45.58021397 319.48375699 50.50585938 312.75878906 C56.09248358 305.1313889 61.79862276 297.60234341 67.54492188 290.09472656 C72.50822378 283.59835843 77.37350612 277.03615841 82.20361328 270.44042969 C86.69264908 264.32563497 91.27323945 258.28459017 95.88085938 252.25878906 C97.85161595 249.67582906 99.82165195 247.09232293 101.79101562 244.50830078 C102.84457447 243.12625476 103.89905289 241.74490845 104.95507812 240.36474609 C106.1053375 238.85657909 107.24379777 237.3394311 108.38085938 235.82128906 C108.95578125 235.05945313 109.53070313 234.29761719 110.12304688 233.51269531 C113.83344238 227.46496026 114.39685426 221.17103361 113.50585938 214.25878906 C111.22651047 206.86945796 107.22695487 202.02667593 100.50585938 198.25878906 C89.17810297 192.98709566 78.06182026 196.62321185 70.25585938 205.88378906 Z " fill="#4DA5FF" transform="translate(202.494140625,11.7412109375)"/>
</svg>
